<?xml version="1.0" encoding="utf-8"?>
<svg viewBox="0 0 500 500" width="75px" height="75px" xmlns="http://www.w3.org/2000/svg" xmlns:bx="https://boxy-svg.com">
  <path d="M 251.707 74.783 L 473.114 426.748 L 30.3 426.748 L 251.707 74.783 Z" style="stroke: rgb(0, 0, 0); fill: rgb(255, 223, 66); stroke-linejoin: round; stroke-width: 25px;" bx:shape="triangle 30.3 74.783 442.814 351.965 0.5 0 1@f7000cd4"/>
  <path d="M 276.916 177.977 C 276.916 179.763 276.723 181.506 276.357 183.188 L 266.046 321.031 L 266.037 321.031 C 266.042 321.197 266.045 321.363 266.045 321.53 C 266.045 329.803 259.325 336.509 251.035 336.509 C 242.745 336.509 236.025 329.803 236.025 321.53 C 236.025 321.363 236.028 321.197 236.033 321.031 L 236.025 321.031 L 225.236 183.366 C 224.844 181.63 224.638 179.827 224.638 177.977 C 224.638 177.442 224.655 176.911 224.689 176.384 L 224.638 175.73 L 224.74 175.73 C 225.919 162.856 237.126 152.761 250.777 152.761 C 264.429 152.761 275.636 162.856 276.814 175.731 L 276.915 175.731 L 276.865 176.395 C 276.899 176.917 276.916 177.445 276.916 177.977 Z" style="stroke: rgb(0, 0, 0);"/>
  <circle style="stroke: rgb(0, 0, 0);" transform="matrix(0.517598, 0, 0, 0.52376, -28.503103, -40.791576)" cx="540" cy="801.5" r="42"/>
</svg>